inDegrees=yes
name=ik_MT_2026-09-03_17h20_01210270-000-000_orientations
DataType=double
version=3
OpenSimVersion=4.5
endheader
time	pelvis_tilt	pelvis_list	pelvis_rotation	pelvis_tx	pelvis_ty	pelvis_tz	hip_flexion_r	hip_adduction_r	hip_rotation_r	knee_angle_r	knee_angle_r_beta	ankle_angle_r	subtalar_angle_r	mtp_angle_r	hip_flexion_l	hip_adduction_l	hip_rotation_l	knee_angle_l	knee_angle_l_beta	ankle_angle_l	subtalar_angle_l	mtp_angle_l	lumbar_extension	lumbar_bending	lumbar_rotation	arm_flex_r	arm_add_r	arm_rot_r	elbow_flex_r	pro_sup_r	wrist_flex_r	wrist_dev_r	arm_flex_l	arm_add_l	arm_rot_l	elbow_flex_l	pro_sup_l	wrist_flex_l	wrist_dev_l
57.525	2.718516313626438	-1.793551789973566	-1082.551252912788	0	0.9399999999999999	0	11.38513017664994	3.066932639023485	2.781047501069275	-8.741944731362835	-0.1525757185896527	-21.56999331511105	0	0	0.6223180620222469	-9.454835363136119	6.488971633716735	44.42715542022859	0.7754001393782339	-0.3752979171119616	0	0	-5.394561253042625	4.387841255600154	-5.345988341673939	-2.683583917003898	-7.043613035191963	3.890680382358264	0.07561999914148484	45.00000025534049	0	0	20.55326376017502	2.552715694318282	2.736385677981194	5.380858584980881	45.00000025534049	0	0
57.55	3.286338823588996	-1.911098929981671	-1081.406210820372	0	0.9399999999999999	0	8.644421423346072	3.11277547730398	0.1978027973553381	-8.001564101420195	-0.1396536388791639	-19.23023240517249	0	0	4.142720784812759	-10.8758734445083	7.549917665084852	52.75355492107592	0.9207232255044322	-9.00748692326218	0	0	-7.796480207005762	4.831460179814328	-5.698318997901153	-1.439634990187827	-6.980049143901995	3.273845471399836	0.06919283334513952	45.00000025534049	0	0	19.89028640731659	2.920311449996162	1.78562692500172	3.499032827232825	45.00000025534049	0	0
57.575	4.182187708408613	-2.297888356564197	-1080.193602781555	0	0.9399999999999999	0	6.120597197103963	4.200789480058896	-1.758596578868195	-8.125652607096525	-0.1418193918670955	-17.78355496921552	0	0	6.572365399690861	-11.65510781451192	9.238378648901895	60.22225139476249	1.051076569802353	-13.97614919638167	0	0	-9.50361612154822	5.482568445089439	-5.947947969380865	-0.5633916183459545	-7.042220373659457	3.031497161941596	0.07050849581963842	45.00000025534049	0	0	18.06408144873752	3.281696191662011	1.197239966891795	1.803721802866684	45.00000025534049	0	0
57.6	3.575378185436286	-2.91969101386508	-1079.208233702971	0	0.9399999999999999	0	5.081617696881867	5.289409449850288	-2.85916461455967	-8.378673764841114	-0.1462354441469465	-16.33345796587972	0	0	10.77947798370947	-10.73545136658811	11.23393677230267	65.45920440951029	1.142478642681945	-18.62398611357978	0	0	-8.223232509587412	6.5012580536214	-5.897019494303011	-0.5983486307027011	-7.438985317754997	3.344475624217313	0.07782159767970014	45.00000025534049	0	0	14.83041342428601	3.784241055610267	1.335854546564794	0.4296708769422517	45.00000025534049	0	0
57.625	3.08652473134592	-3.299808616165769	-1078.106867535046	0	0.9399999999999999	0	3.697378464928677	6.074308750681138	-3.046554607319961	-8.805085969663894	-0.1536777410917925	-14.70698085320519	0	0	14.74740367155836	-9.56187691703246	13.98940398120027	67.88487388542215	1.184814561601732	-27.94587413412068	0	0	-6.690987018356532	7.307599561245043	-5.792317243695419	-0.7467856517474984	-7.888519422262383	3.872394640176528	0.09158543844482707	45.00000025534049	0	0	11.16003388432557	3.926132892676797	2.573744858948087	0.1512691927525926	45.00000025534049	0	0
57.65	2.947926864701309	-3.209314151504615	-1077.375816061437	0	0.9399999999999999	0	2.709576728484509	6.19011409610485	-2.810331834472795	-8.427505887731785	-0.1470877254721273	-13.06221881267395	0	0	18.59045368234147	-9.076784438941399	15.1342713068337	69.57833520656294	1.214371037410812	-27.0339123355453	0	0	-6.428401386816724	7.53474656710125	-5.444451585141094	0.1186601472497867	-8.281407062174726	4.92092143406307	0.118802051584431	45.00000025534049	0	0	8.661988052266851	3.511542524899056	3.849724651951789	0.09313600274720267	45.00000025534049	0	0
57.675	1.873346271002134	-2.717626048364872	-1077.148224275071	0	0.9399999999999999	0	2.907996257928305	5.983033119417908	-2.663967274486614	-7.812721067170436	-0.1363577061620492	-11.65598107072121	0	0	23.60331219342561	-9.120345352463678	14.78793737567431	70.48224795892258	1.230147291090252	-23.27888034656296	0	0	-5.961416383881546	6.957302032819833	-5.12389571582306	1.828490164426992	-8.520552936143066	6.471767815938525	0.1746578244823285	45.00000025534049	0	0	7.08918837129207	2.700559974790681	3.807003127074821	0.07424895341799453	45.00000025534049	0	0
57.7	1.871996951769292	-2.138169751248715	-1076.854960885382	0	0.9399999999999999	0	1.740072233625318	5.918751960317311	-3.169136505452144	-7.431388156278931	-0.1297021913207783	-10.22873470493512	0	0	27.27240800356522	-8.953592249957135	14.69646288306417	69.73033427576016	1.21702392162827	-21.73077895366071	0	0	-6.3582179679559	6.140157028283169	-5.242103728918211	3.538212671610865	-8.688983161805115	8.174331988196599	0.3619795358761509	45.00000025534049	0	0	5.501370423309351	1.996463402865832	1.997462326711311	0.06821357134132144	45.00000025534049	0	0
